# xmcd
#
# Track frame offsets:
#	150
#	15642
#	29232
#	44574
#	62633
#	76829
#	90962
#	104444
#	116205
#	131937
#	148505
#
# Disc length: 2181 seconds
#
# Revision: 1
# Processed by: cddbd v1.5.2PL0 Copyright (c) Steve Scherf et al.
# Submitted via: audiograbber 1.83.01
#
DISCID=9908830b
DTITLE=Cuby and Blizzards - Cats Lost
DYEAR=2000
DGENRE=Blues
TTITLE0=Blues is a Bad Habit
TTITLE1=Deadlines
TTITLE2=I'm in Your Corner
TTITLE3=Low Country Blues
TTITLE4=Baghdad Blues
TTITLE5=Peabody Hotel Room
TTITLE6=Devil made Religion
TTITLE7=Mama won't Buy me a Dream
TTITLE8=Stranger
TTITLE9=My old Jimny
TTITLE10=More than I could Ask for
EXTD=
EXTT0=
EXTT1=
EXTT2=
EXTT3=
EXTT4=
EXTT5=
EXTT6=
EXTT7=
EXTT8=
EXTT9=
EXTT10=
PLAYORDER=
